Coordinates
version=1
nRows=7
nColumns=40
inDegrees=yes

Units are S.I. units (second, meters, Newtons, ...)
Angles are in degrees.

endheader
time	pelvis_tilt	pelvis_list	pelvis_rotation	pelvis_tx	pelvis_ty	pelvis_tz	hip_flexion_r	hip_adduction_r	hip_rotation_r	knee_angle_r	knee_angle_r_beta	ankle_angle_r	subtalar_angle_r	mtp_angle_r	hip_flexion_l	hip_adduction_l	hip_rotation_l	knee_angle_l	knee_angle_l_beta	ankle_angle_l	subtalar_angle_l	mtp_angle_l	lumbar_extension	lumbar_bending	lumbar_rotation	arm_flex_r	arm_add_r	arm_rot_r	elbow_flex_r	pro_sup_r	wrist_flex_r	wrist_dev_r	arm_flex_l	arm_add_l	arm_rot_l	elbow_flex_l	pro_sup_l	wrist_flex_l	wrist_dev_l
      2.34250000	     -5.00613094	     -4.55015551	      3.87589071	      0.76658993	      0.92102516	      0.46287479	      5.73473800	     -0.04989896	    -12.21422044	     29.90172805	     29.90172805	     16.11265101	     -5.78056008	     -7.62873015	     27.22103718	     -4.60987095	     -0.06851189	     24.74268278	     24.74268278	      6.20245954	    -12.29730371	      1.59210933	     -7.99169157	      3.73813493	      3.53464506	     29.23427885	    -12.93863122	      6.65925064	     87.08762847	     44.64058065	      0.00000000	      0.00000000	     -6.75108505	     -7.69750816	    -10.56094328	     32.22059369	     45.81680095	      0.00000000	      0.00000000
      2.35542857	     -5.00614953	     -4.39244106	      3.54036618	      0.76617064	      0.92164742	      0.46083078	      7.17171976	     -0.75553992	    -11.81263554	     33.17947603	     33.17947603	     15.03782113	     -6.90402279	     -8.51233559	     26.69070613	     -4.48312442	     -0.50886129	     24.74400606	     24.74400606	      6.67160058	    -12.23605657	      1.31340566	     -8.11505241	      3.48178318	      3.53093007	     27.84450452	    -13.13319446	      6.86454843	     85.96154462	     44.66953958	      0.00000000	      0.00000000	     -6.20018041	     -7.79364488	    -10.47263562	     32.73823137	     45.81460677	      0.00000000	      0.00000000
      2.36835714	     -5.08259360	     -4.27706367	      3.20310763	      0.76559823	      0.92199745	      0.45886991	      8.83230584	     -1.38116607	    -11.32717770	     36.58801836	     36.58801836	     13.56021125	     -8.39384703	     -9.65142491	     26.25890546	     -4.40532805	     -0.98238324	     24.73006227	     24.73006227	      7.09663806	    -12.08291189	      0.96119132	     -8.12021102	      3.29225599	      3.52252714	     26.43631699	    -13.33310996	      7.02177699	     84.40016844	     44.71596519	      0.00000000	      0.00000000	     -5.72897091	     -7.92692262	    -10.32274324	     33.48410391	     45.80437330	      0.00000000	      0.00000000
      2.38128571	     -5.03286587	     -4.08071160	      2.87244044	      0.76496420	      0.92237325	      0.45692935	     10.46093801	     -2.10439730	    -10.87789574	     40.12353652	     40.12353652	     12.02401071	     -9.72586663	    -10.37978591	     25.71420359	     -4.26047258	     -1.50289086	     24.77074669	     24.77074669	      7.51720645	    -11.89400190	      0.61223180	     -8.32737145	      3.01925308	      3.41054957	     25.03184481	    -13.43801359	      7.20417211	     82.97633910	     44.75466509	      0.00000000	      0.00000000	     -5.20136113	     -8.11552786	    -10.22540007	     34.15635187	     45.80186995	      0.00000000	      0.00000000
      2.39421429	     -5.01250066	     -3.94882103	      2.59192276	      0.76424792	      0.92256191	      0.45503346	     12.18928790	     -2.69925651	    -10.38444124	     43.65058092	     43.65058092	     10.30505664	    -11.23091755	    -10.92521865	     25.23126114	     -4.16475806	     -1.95475730	     24.81989919	     24.81989919	      7.92356390	    -11.60566143	      0.21448077	     -8.44085784	      2.83708204	      3.32173360	     23.57424410	    -13.56046586	      7.34094994	     81.17708449	     44.80720507	      0.00000000	      0.00000000	     -4.70357548	     -8.30253975	    -10.09295079	     34.98363519	     45.79558281	      0.00000000	      0.00000000
      2.40714286	     -4.93875875	     -3.89183257	      2.28966186	      0.76350472	      0.92271749	      0.45332893	     13.83644947	     -3.10683033	     -9.84136511	     46.94031905	     46.94031905	      8.12481898	    -13.29548125	    -12.02151302	     24.76357528	     -4.22808470	     -2.63437630	     24.97613298	     24.97613298	      8.29121961	    -11.09914161	     -0.54925627	     -8.55691153	      2.74676457	      2.58031159	     22.92809439	    -12.91550696	      7.36228873	     77.11299872	     44.95493662	      0.00000000	      0.00000000	     -5.01976379	     -8.79749467	     -9.20290263	     37.18474493	     45.70406373	      0.00000000	      0.00000000
      2.42007143	     -4.87331961	     -3.66634853	      2.04207366	      0.76266702	      0.92280334	      0.45137983	     15.56463391	     -3.81922463	     -9.51535538	     50.31463645	     50.31463645	      6.54015453	    -14.43981617	    -11.64885245	     24.26036747	     -3.99303199	     -3.03307985	     25.05383269	     25.05383269	      8.69636346	    -10.97883523	     -0.80267803	     -8.75212158	      2.55281988	      2.48717827	     21.27329901	    -13.17944867	      7.62105400	     75.66143209	     44.98971424	      0.00000000	      0.00000000	     -4.32918111	     -9.03579136	     -9.14844323	     37.81469938	     45.71322829	      0.00000000	      0.00000000
